<?xml version="1.0" encoding="UTF-8" standalone="no"?>
<svg
   xmlns:dc="http://purl.org/dc/elements/1.1/"
   xmlns:cc="http://creativecommons.org/ns#"
   xmlns:rdf="http://www.w3.org/1999/02/22-rdf-syntax-ns#"
   xmlns:svg="http://www.w3.org/2000/svg"
   xmlns="http://www.w3.org/2000/svg"
   xmlns:sodipodi="http://sodipodi.sourceforge.net/DTD/sodipodi-0.dtd"
   xmlns:inkscape="http://www.inkscape.org/namespaces/inkscape"
   version="1.1"
   id="Layer_1"
   x="0px"
   y="0px"
   width="150px" 
   height="150px" 
   viewBox="0 0 150 150" 
   enable-background="new 0 0 150 150"
   xml:space="preserve"
   sodipodi:docname="marker.svg">
   <metadata id="metadata3005">
      <rdf:RDF>
         <cc:Work rdf:about="">
            <dc:format>image/svg+xml</dc:format>
            <dc:type rdf:resource="http://purl.org/dc/dcmitype/StillImage" />
         </cc:Work>
      </rdf:RDF>
   </metadata>
   <defs id="defs3003" />
   <sodipodi:namedview 
      pagecolor="#ffffff" 
      bordercolor="#666666"
      borderopacity="1"
      objecttolerance="10"
      gridtolerance="10"
      guidetolerance="10" />
<g
   id="g2997"
   transform="translate(25.423731,12.711865)">
   <path
   d="M 49.977,0 C 22.375,0 0,22.375 0,49.978 c 0,27.601 43.723,82.153 43.723,82.153 3.439,4.291 9.068,4.291 12.508,0 0,0 43.723,-54.553 43.723,-82.153 C 99.953,22.375 77.577,0 49.977,0 z m 0,66.635 c -9.201,0 -16.659,-7.458 -16.659,-16.657 0,-9.201 7.458,-16.66 16.659,-16.66 9.2,0 16.659,7.458 16.659,16.66 0,9.199 -7.459,16.657 -16.659,16.657 z"
   id="path2999"
   inkscape:connector-curvature="0"
   style="fill:#1abc9c" />
</g>
<path
   sodipodi:type="arc"
   style="fill:#ffffff;fill-opacity:1"
   id="path3007"
   sodipodi:cx="54.661018"
   sodipodi:cy="47.457626"
   sodipodi:rx="13.559322"
   sodipodi:ry="13.559322"
   d="m 68.220341,47.457626 a 13.559322,13.559322 0 1 1 -27.118645,0 13.559322,13.559322 0 1 1 27.118645,0 z"
   transform="matrix(1.7343751,0,0,1.7812501,-19.167109,-20.338989)" />
</svg>